<?xml version="1.0" encoding="utf-8"?>
<!-- Generator: Adobe Illustrator 23.0.3, SVG Export Plug-In . SVG Version: 6.00 Build 0)  -->
<svg version="1.1" id="Layer_1" xmlns="http://www.w3.org/2000/svg" xmlns:xlink="http://www.w3.org/1999/xlink" x="0px" y="0px"
	 viewBox="0 0 700 168.8" style="enable-background:new 0 0 700 168.8;" xml:space="preserve">
<style type="text/css">
	.st0{fill:#026CB6;}
	.st1{fill:#414042;}
</style>
<g>
	<g>
		<g>
			<path class="st0" d="M72.1,166.7H48.5l-25.7-27.2c-3.1-3.2-4.6-6.1-4.6-9c0-2.6,0.9-4.6,2.6-6c1.8-1.4,4.2-2.2,7.5-2.4
				c8.9-0.6,15.5-2.4,19.9-5.4c4.4-3,6.6-7.4,6.6-13.3c0-5.6-1.7-9.7-5.1-12.5c-3.4-2.8-8.1-4.2-14.3-4.2H16.8v80H0V69.9h35.8
				c5.1,0,9.9,0.7,14.4,2.2c4.4,1.4,8.3,3.5,11.6,6.3c3.3,2.8,5.9,6.3,7.8,10.4c1.9,4.1,2.8,8.9,2.8,14.3c0,3.3-0.5,6.6-1.5,10
				c-1,3.4-2.6,6.6-5,9.6c-2.3,3-5.4,5.6-9.2,7.9c-3.8,2.3-8.5,3.9-14.2,4.8L72.1,166.7z"/>
			<path class="st0" d="M129.5,166.7h-48V69.9h47.3v16.9H98.3v22.5h26.1V126H98.3v23.9h31.1V166.7z"/>
			<path class="st0" d="M201.2,161.9l-47.4-62.4v67.2h-16.2V78.4c0-2.6,0.7-4.7,2.1-6.2c1.4-1.5,3.4-2.3,6-2.3
				c1.7,0,3.3,0.4,4.8,1.1c1.5,0.7,2.9,2,4.4,3.9l47.3,62.2V69.9h16.1v88.5c0,6.2-2.1,9.3-6.3,9.3c-2.1,0-3.9-0.4-5.5-1.4
				C204.9,165.3,203.1,163.9,201.2,161.9z"/>
			<path class="st0" d="M277,166.7h-48V69.9h47.3v16.9h-30.4v22.5H272V126h-26.1v23.9H277V166.7z"/>
		</g>
		<g>
			<path class="st0" d="M360,163.8c-1.2,1.8-2.7,3.1-4.4,3.8c-1.6,0.8-3.4,1.2-5.3,1.2c-2.1,0-3.9-0.8-5.2-2.3c-1.3-1.6-2-3.6-2-6.1
				v-59l-41.5,62.4c-1.3,1.8-2.7,3.1-4.4,3.8c-1.6,0.8-3.4,1.2-5.3,1.2c-2.1,0-3.9-0.8-5.2-2.3c-1.3-1.6-2-3.6-2-6.1V71.3h16.8v65.5
				l37.7-59.7c1.4-2.2,3-3.8,4.6-4.6c1.7-0.8,3.3-1.2,5-1.2c2.9,0,5.4,1,7.6,3.1c2.2,2.1,3.2,4.7,3.2,8v54.4l41.5-65.5h20.1
				L360,163.8z"/>
		</g>
		<path class="st1" d="M428.6,77.1c1.2-1.8,2.7-3,4.4-3.8c1.6-0.7,3.4-1.1,5.2-1.1c2.2,0,3.9,0.8,5.2,2.2c1.3,1.5,1.9,3.5,1.9,6
			v58.5l41.1-61.8c1.2-1.8,2.7-3,4.4-3.8c1.6-0.7,3.4-1.1,5.3-1.1c2.1,0,3.8,0.8,5.1,2.2c1.3,1.5,1.9,3.5,1.9,6v88.4h-16.7v-64.9
			L449,163.1c-1.4,2.3-3,3.8-4.6,4.5c-1.7,0.8-3.3,1.2-5,1.2c-2.8,0-5.3-1.1-7.5-3.1c-2.2-2-3.3-4.6-3.3-7.9v-53.9l-41.1,64.9h-19.9
			L428.6,77.1z"/>
		<path class="st1" d="M588.3,72.2v25.2c0,12.4-2.6,22.4-7.9,29.7c-5.3,7.3-12.7,11.7-22.2,13.2v27.9h-16.7v-28.1
			c-9.5-1.4-16.9-5.8-22-13.1c-5.2-7.3-7.7-17.2-7.7-29.6V72.2h16.7v25.2c0,5,0.3,9.1,1.1,12.5c0.8,3.4,1.9,6.1,3.5,8.2
			c1.6,2.1,3.7,3.6,6.2,4.5c2.6,0.9,5.6,1.3,9.2,1.3h3.2c3.5,0,6.5-0.5,9-1.4c2.6-0.9,4.6-2.4,6.3-4.4c1.6-2.1,2.8-4.8,3.6-8.1
			c0.7-3.4,1.1-7.6,1.1-12.5V72.2H588.3z"/>
		<path class="st0" d="M596.5,168.2v-96h16.7v96H596.5z"/>
		<path class="st0" d="M624.2,168.2v-96h27.5c7.2,0,13.7,1.2,19.6,3.5c5.9,2.3,11,5.5,15.3,9.7c4.3,4.1,7.6,9.1,9.9,14.8
			c2.4,5.7,3.6,12.1,3.6,19c0,7-1.2,13.4-3.6,19.4c-2.4,6-5.7,11.1-10,15.5c-4.3,4.4-9.4,7.9-15.3,10.3c-5.9,2.5-12.4,3.7-19.4,3.7
			H624.2z M640.8,88.9v62.6h10.8c4.7,0,9.1-0.8,13-2.3c3.9-1.6,7.2-3.7,10-6.5c2.8-2.8,4.9-6,6.4-9.8c1.5-3.8,2.3-7.9,2.3-12.3
			c0-4.5-0.8-8.8-2.3-12.6c-1.5-3.9-3.7-7.2-6.5-10c-2.8-2.8-6.1-5-10-6.6c-3.9-1.6-8.1-2.4-12.8-2.4H640.8z"/>
	</g>
	<g>
		<path class="st1" d="M53.9,25.1c0,0.1,0,0.4,0,1c0,0.6,0,1.3,0,2c0,0.8-0.1,1.5-0.1,2.3c-0.1,0.8-0.1,1.3-0.2,1.7
			c-0.2,0.5-0.3,1-0.5,1.6c-0.2,0.6-0.4,1.1-0.6,1.8c-0.1,0.2,0,0.5,0.1,0.8c0.1,0.3,0.1,0.6,0.1,0.9c-0.3,1.5-0.8,2.9-1.5,4
			c-0.7,1.1-1.4,2.4-2.1,3.8c-0.3,0.3-0.3,0.8-0.2,1.4c0,0.2-0.1,0.4-0.3,0.5c-0.2,0.1-0.4,0.4-0.6,0.7c-0.1,0.1-0.1,0.1,0,0.3
			c0.1,0.1,0.1,0.2,0.1,0.3c-0.5,1-1,2.1-1.7,3.1c-0.7,1.1-1.4,1.9-2,2.6c-0.1,0.1-0.1,0.3-0.2,0.6c-0.1,0.3-0.2,0.6-0.4,0.8
			c-0.2,0.3-0.5,0.6-0.8,1c-0.4,0.4-0.8,0.8-1.2,1.3c-0.5,0.5-0.9,0.9-1.4,1.3c-0.5,0.4-0.9,0.6-1.2,0.7c-0.2,0.2-0.5,0.2-0.8,0.3
			c-0.4,0-0.7,0-0.9,0h-1.5c-0.3,0-0.8-0.2-1.8-0.6c-0.9-0.4-1.6-0.8-2.1-1.1c-0.3-0.3-0.7-0.7-1-1.3c-0.4-0.5-0.8-1-1.3-1.3
			c-0.5-1.1-0.9-2.4-1-4c-0.2-1.6-0.3-2.9-0.3-3.9c0-0.1,0-0.3,0-0.7c0-0.4-0.1-0.8-0.1-1.2c-0.1-0.4-0.1-0.8-0.2-1.2
			c-0.1-0.4-0.1-0.6-0.1-0.7v-5.4c0-0.2,0.1-0.4,0.2-0.8c0.1-0.4,0.1-0.8,0-1.1c-0.7,0.7-1.4,1.3-1.9,1.9c-0.6,0.6-1.1,1.2-1.6,1.9
			c-1.2,1.7-2.4,3.5-3.7,5.6c-1.3,2-2.4,4-3.3,5.9c-0.1,0.1-0.1,0.2-0.3,0.3c-0.1,0.1-0.3,0.3-0.4,0.5c-0.2,0.4-0.4,0.9-0.7,1.6
			c-0.3,0.7-0.6,1.2-0.9,1.8c0,0.1-0.3,0.5-0.8,1.3c-0.5,0.8-1.1,1.7-1.8,2.6c-0.7,1-1.5,1.8-2.2,2.6c-0.8,0.8-1.4,1.2-1.8,1.2
			c-0.2,0-0.5-0.1-0.8-0.3C7.4,63,7.2,62.9,7,62.9c-0.2,0-0.4,0.1-0.5,0.2c-0.1,0.1-0.2,0.2-0.3,0.2c-1.7-1.5-3-2.9-3.9-4
			c-0.9-1.1-1.4-2.2-1.5-3.3c-0.3-0.5-0.4-1.1-0.5-1.8c-0.1-0.7-0.1-1.3,0-1.8c0.1-3.2,0.5-6.3,1.3-9.5c0.8-3.2,1.8-6.4,3-9.5
			c1.2-3.1,2.6-6.2,4.1-9c1.5-2.9,3.1-6,4.8-9.2c0,0,0-0.1,0-0.3c0-0.2,0-0.3-0.1-0.5c0.3-0.1,0.5-0.2,0.5-0.3
			c0.1-0.2,0.2-0.4,0.3-0.7c0.1-0.3,0.2-0.6,0.4-0.8c0.2-0.3,0.4-0.5,0.5-0.6c0.1-0.2,0.1-0.3,0.1-0.6c0-0.2,0.1-0.4,0.2-0.6
			c0.6-0.9,1.1-1.8,1.6-2.7c0.5-0.9,1.2-1.7,2-2.5c0.3-0.3,0.6-0.5,1.1-0.5c0.5,0,1-0.2,1.5-0.3C22,5,22.5,5.7,23,6.7
			c0.5,1,0.8,1.9,0.8,2.8c0,0-0.2,0.4-0.5,1.1c-0.3,0.7-0.7,1.5-1.1,2.5C21.8,14,21.4,15,20.9,16c-0.5,1-0.9,1.9-1.2,2.5
			c-0.3,0.6-0.6,1.2-1,1.9c-0.4,0.7-0.9,1.5-1.3,2.3c-0.5,0.8-0.8,1.6-1.1,2.2c-0.3,0.6-0.5,1.2-0.6,2l-0.4,0.8
			c-1.1,2.8-2.2,5.6-3.5,8.4c-1.3,2.8-2.3,5.6-3,8.4c-0.1,0.4-0.3,0.9-0.5,1.7c-0.2,0.7-0.4,1.5-0.6,2.2c-0.2,0.7-0.3,1.4-0.5,2
			c-0.2,0.6-0.2,0.9-0.2,1v3.4v0.2c0,0,0.1,0.1,0.3,0.1c0.2,0,0.4-0.3,0.9-0.9c0.4-0.6,0.8-1.1,1.1-1.5c1.2-1.5,2.5-3.3,3.9-5.6
			c1.4-2.3,2.8-4.4,4.2-6.5c0.1-0.1,0.2-0.4,0.4-0.9c0.1-0.2,0-0.2-0.2-0.2h0.2c0.1,0,0.1,0,0.2,0.1c0.2-0.3,0.3-0.7,0.4-1.2
			c0.1-0.5,0.2-0.8,0.5-0.8c0.2,0,0.2,0,0.1,0.1c-0.1,0.1-0.1,0.1,0,0.2c0.2-0.3,0.4-0.6,0.7-0.8c0.3-0.2,0.6-0.5,0.9-0.9
			c0.4-0.6,0.6-1.2,0.8-1.8c0.2-0.6,0.6-1.2,1.2-1.6c0,0,0.1,0,0.1-0.1c0-0.1-0.1-0.2-0.2-0.2c-0.3,0-0.4,0-0.3,0c0,0,0,0-0.1,0
			c0.1-0.2,0.2-0.5,0.4-0.8c0.2-0.3,0.3-0.5,0.5-0.5c0.2,0,0.3,0,0.2,0.1c-0.1,0.1-0.1,0.2,0,0.3c0.2-0.3,0.3-0.5,0.2-0.6
			c-0.1-0.2,0-0.3,0.2-0.5c0.1,0.1,0.3,0.2,0.5,0.2c0.2-0.3,0.3-0.5,0.3-0.7c0-0.2,0.3-0.6,0.7-1.1c0.1-0.2,0-0.3,0-0.4
			c-0.1-0.1-0.1-0.3,0-0.5c0,0.2,0.1,0.4,0.2,0.5c0.4-0.3,0.5-0.8,0.3-1.4v0.1c0,0.1,0,0.2,0.2,0.3c0,0,0.1-0.3,0.3-0.7
			c0.2-0.4,0.2-0.5-0.1-0.3c0.3-0.2,0.5-0.4,0.7-0.7c0.2-0.3,0.4-0.5,0.6-0.8c-0.2,0-0.2-0.2,0-0.5c0.2-0.4,0.5-0.6,0.8-0.8L27.4,24
			v0.1c0,0.1,0,0.1,0.1,0.2c0.3-0.3,0.6-0.5,0.8-0.6c0-0.3-0.1-0.4-0.4-0.4c0.3,0.1,0.6,0.1,1,0.1c0.4,0,0.7-0.1,1.1-0.1
			c0.2,0,0.3,0.2,0.4,0.3c0.1,0.2,0.2,0.3,0.3,0.3c0.3,0,0.3,0,0.2-0.1c-0.1,0,0-0.1,0.2-0.1c0.2,0,0.5,0.1,0.9,0.3
			c0.5,0.2,0.8,0.4,1.2,0.5c0.3,0.1,0.6,0.4,1,1c0.4,0.6,0.6,1,0.7,1.3c0.1,0.5,0.2,1,0.4,1.5c0.2,0.5,0.2,0.9,0.2,1.2l-0.9,14.8
			c0,0.1,0,0.4,0.1,0.8c0.1,0.5,0.1,1,0.1,1.6c0,0.6,0,1.3,0.1,2c0,0.7,0,1.3,0,1.8c0.1,0.2,0.1,0.3,0.1,0.3c0,0.1,0.1,0.1,0.3,0.1
			c0.3,0,0.6-0.4,1.2-1.2c0.5-0.8,1.1-1.6,1.7-2.6c0.6-0.9,1.2-1.9,1.6-2.8c0.5-0.9,0.8-1.5,1-1.7c0.1-0.2,0.2-0.4,0.2-0.8
			c0.1-0.4,0.2-0.8,0.4-1.1c0.5-0.6,1-1.2,1.4-2c0.2-0.3,0.3-0.7,0.3-1.3c0.1-0.6,0.2-1,0.3-1.4c0.2-0.6,0.4-1.1,0.7-1.8
			c0.3-0.6,0.6-1.2,0.8-1.8c0.2-0.6,0.5-1.3,0.8-1.9c0.3-0.9,0.5-1.8,0.5-2.7c0.1-0.9,0.1-1.8,0.2-2.7c0.3-0.1,0.4-0.3,0.4-0.5
			c0.2-1,0.4-2.2,0.5-3.4c0.2-1.2,0.4-2.4,0.6-3.5c0.1-0.4,0.2-0.8,0.4-1.2c0.2-0.5,0.3-0.8,0.5-1.1c0.4,0,0.6,0.3,0.7,0.9
			c0.1,0.6,0.2,0.9,0.4,0.9c0.5,0,0.9,0,1.1-0.1c0.2,0.2,0.3,0.5,0.3,0.9c0.1,0.4,0.2,0.8,0.3,1.1c0.1,0.2,0.3,0.3,0.5,0.4
			c0.2,0,0.4,0.1,0.5,0.2c0.1,0.4,0.1,0.8,0,1.3c0,0.5,0,0.9,0.1,1.4c0.2-0.2,0.4-0.5,0.6-1c-0.1,0.5-0.2,1-0.2,1.5
			c0,0.5,0.1,1,0.2,1.7c0,0.1,0.1,0.2,0.2,0.2C53.9,24.7,53.9,24.8,53.9,25.1z M22.5,34l-0.2-0.2l-0.5,0.6l0.2,0.2L22.5,34z
			 M24.3,29.1l-0.5,0.5l-0.2-0.2l0.5-0.5L24.3,29.1z"/>
		<path class="st1" d="M73.6,54.4c-0.4,0.1-0.7,0.3-1,0.6c-0.3,0.2-0.6,0.4-0.9,0.5c0,0.4,0.3,0.6,0.8,0.8c-0.2,0.2-0.3,0.5-0.4,0.8
			c-0.1,0.3-0.3,0.7-0.4,1c-0.7-0.2-1.2,0.1-1.5,0.7c-0.3,0.6-0.5,1.3-0.5,1.9c-0.5,0.2-0.9,0.3-1.4,0.3c-0.5,0.1-1,0.1-1.6,0.1
			c-0.2,0.1-0.2,0.2-0.1,0.2c0.1,0.1,0.3,0.1,0.4,0.1c-0.4,0.1-0.9,0.2-1.4,0.4c-0.5,0.2-1,0.4-1.4,0.4v0.2c0,0.1-0.1,0.2-0.3,0.2
			c-0.2,0-0.5-0.1-0.9-0.2c-0.4-0.2-0.7-0.3-1.1-0.3c-0.3-0.1-0.6-0.1-0.9,0c-0.3,0-0.4,0.3-0.5,0.6l-0.8-1.2c-1.1-0.3-2-0.6-2.5-1
			c-0.5-0.4-1.3-1.1-2.3-2.1c-0.4-0.2-0.6-0.4-0.7-0.5c-0.1-0.1-0.2-0.3-0.3-0.5c-0.1-0.2-0.2-0.6-0.4-1.2c-0.2-0.6-0.4-1.7-0.7-3.3
			c-0.2-1.5-0.2-2.7,0-3.6c0.2-0.9,0.4-1.6,0.6-2.3c0.2-0.7,0.5-1.7,1-3.1c0.5-1.3,1-2.6,1.6-3.8c0.3-0.6,0.7-1.3,1.1-2.2
			c0.4-0.8,0.9-1.7,1.5-2.6c0.3-0.4,0.6-0.8,1-1.3c0.4-0.5,0.7-1,1-1.5c0.6-0.5,1-1,1.3-1.4c0.3-0.4,0.8-0.8,1.6-1.3
			c0.4-0.2,0.8-0.4,1.4-0.6c0.6-0.3,0.8-0.6,0.7-1c-0.1,0-0.2,0.1-0.2,0.2c0,0.1,0.1,0.2,0.3,0.2c0.3,0,0.4,0,0.2-0.1
			c-0.2-0.1-0.1-0.1,0.2-0.1c0.2,0,0.5,0.1,1,0.4c0.4,0.3,0.8,0.4,1.2,0.5c0.1,0.4,0.2,0.7,0.2,1c0,0.3,0.1,0.5,0.4,0.5
			c0.3,0,0.4,0,0.3-0.1c-0.1-0.1,0-0.1,0.2-0.1c0.2,0,0.4,0.1,0.5,0.2c0.1,0.2,0.3,0.3,0.4,0.5c0,0.8,0.1,1.3,0.2,1.6
			c0.1,0.3,0.3,0.5,0.5,0.6c0.2,0.1,0.4,0.2,0.6,0.3c0.2,0.1,0.3,0.4,0.3,1c0,0.1-0.1,0.4-0.2,0.9c-0.1,0.5-0.2,1-0.3,1.7
			c-0.1,0.6-0.3,1.3-0.5,1.9c-0.2,0.6-0.3,1.2-0.5,1.7c-0.3,0.6-0.8,1.4-1.5,2.4c-0.7,1-1.4,1.9-2,2.7c-0.6,0.6-1.3,1.4-2,2.2
			c-0.7,0.9-1.4,1.7-2.1,2.4c-0.7,0.7-1.3,1.4-1.8,1.9c-0.5,0.6-0.7,1-0.7,1.2c0,0.3,0.3,0.7,0.8,1c0.5,0.4,1,0.7,1.5,0.9
			C62.6,56,63,56,63.5,56c0.5,0,0.9,0,1.1,0c0.4,0,0.8-0.1,1.2-0.3c0.4-0.2,0.9-0.2,1.5,0.1c1-0.3,2-0.6,3-0.9
			c0.9-0.3,1.8-0.6,2.6-0.8C73.1,54.3,73.3,54.4,73.6,54.4z"/>
		<path class="st1" d="M96.8,53.4c-0.3,0.3-0.5,0.6-0.6,1c-0.2,0.3-0.4,0.5-0.8,0.7c0,0.1,0,0.2,0.1,0.3c0.4-0.1,0.8-0.3,1.2-0.5
			c-0.6,0.2-0.6,0.4-0.2,0.8c-0.4,0.2-0.8,0.6-1,1.2c-0.3,0.6-0.1,0.9,0.4,1c-0.3,0.2-0.5,0.4-0.7,0.8c-0.2,0.4-0.3,0.6-0.4,0.8
			c-0.4,0.3-0.9,0.6-1.5,0.9c-0.6,0.3-1.1,0.6-1.5,1c-0.3,0.2-0.5,0.5-0.8,0.8c-0.3,0.3-0.7,0.5-1.1,0.6c-0.4,0.2-0.8,0.3-1.2,0.4
			c-0.5,0.1-0.9,0.2-1.3,0.3l-0.5-0.5c-0.5,0.4-0.8,0.5-1,0.4c-0.2-0.1-0.4-0.1-0.7-0.1c-0.3,0-0.4,0-0.3,0.2c0.1,0.1,0,0.2-0.3,0.2
			c-0.2,0-0.6-0.2-1.3-0.5c-0.7-0.3-1.3-0.5-1.6-0.6c-1.2-0.5-2.3-1.2-3.2-2.2c-0.9-1-1.7-2.2-2.3-3.5c-0.6-1.3-1-2.5-1.3-3.8
			c-0.2-1.2-0.3-2.3-0.3-3.3c0-3.2,0.3-6.1,1-8.9c0.7-2.8,1.4-5.5,2.1-8.4c0.1-0.4,0.2-0.7,0.4-1c0.2-0.3,0.4-0.5,0.4-0.8
			c0.2-0.9,0.4-1.9,0.6-3.1c0.3-1.2,0.5-2.3,0.8-3.4c0.3-1.1,0.8-2.4,1.3-4.1c0.6-1.7,1.2-3.4,1.9-5.3c0.2-0.4,0.4-0.7,0.7-1.1
			c0.3-0.4,0.5-0.7,0.6-1.2c0.5-1.4,0.9-2.5,1.5-3.2c0.5-0.7,0.7-1.5,0.7-2.5c0.1,0,0.2,0,0.4-0.1C87.2,7,87.4,7,87.6,7
			c0.3,0,0.5,0.1,0.8,0.4c0.3,0.3,0.6,0.4,1,0.5c0.1,0,0.2,0,0.2-0.1c0,0,0.1,0,0.2,0c0.1,0,0.2,0,0.4,0c0.2,0.4,0.3,0.8,0.6,1.3
			c0.2,0.5,0.4,0.9,0.5,1.3c0.2,0.3,0.2,0.6,0.2,1c-0.1,0.4,0,0.8,0.2,1l-7.5,24.4c-0.4,0.9-0.7,1.8-1,2.7c-0.3,0.9-0.5,1.8-0.7,2.7
			c-0.2,0.6-0.3,1.4-0.5,2.4c-0.2,1-0.4,2.1-0.6,3.1c-0.2,1-0.4,2.1-0.5,3.1c-0.1,1-0.2,1.8-0.2,2.3c0,0.2,0,0.7,0,1.4
			c0,0.7,0.1,1.3,0.1,1.8c0.1,0.2,0.2,0.4,0.3,0.7c0.2,0.2,0.3,0.4,0.5,0.6c0.7,0.4,1.3,0.6,1.8,0.6c0.3,0,0.5-0.1,0.6-0.2
			c0.1-0.1,0.2-0.2,0.4-0.2c0.3,0,0.4,0,0.6,0.1c0.1,0.1,0.3,0.1,0.7,0.1c0.2,0,0.4-0.1,0.8-0.2c0.4-0.2,1-0.4,1.9-0.7
			c0.2-0.2,0.4-0.3,0.6-0.5c0.2-0.2,0.3-0.2,0.5-0.2c0.3,0,0.4,0,0.4,0.1c-0.1,0.1,0,0.1,0.3,0.1c0.2,0,0.6-0.3,1.3-0.8
			c0.6-0.5,1.4-1,2.3-1.5c-0.2,0.1-0.2,0.3,0,0.5c0.1-0.1,0.1-0.2,0.1-0.3c0-0.1,0.1-0.1,0.3-0.1c0.3,0,0.7-0.1,1.3-0.4
			C96,53.8,96.5,53.6,96.8,53.4z"/>
		<path class="st1" d="M124.6,62.9c-0.2,0.2-0.4,0.2-0.6,0.2c-0.3,0-0.5,0-0.7,0c-0.3,0-0.4,0-0.3,0c0,0,0,0.1,0,0.3
			c-0.4-0.3-0.9-0.5-1.5-0.7c-0.6-0.2-1-0.3-1.2-0.3c-0.2,0.1-0.3,0.1-0.4,0.3c-0.1,0.1-0.2,0.2-0.5,0.2c-0.2,0-0.3-0.1-0.3-0.2
			c0-0.1-0.2-0.2-0.5-0.1c-0.5,0.1-1.2-0.1-2-0.3c-0.8-0.3-1.6-0.6-2.4-0.9c-0.8-0.3-1.5-0.7-2.1-1c-0.6-0.3-1.1-0.5-1.3-0.6
			c-0.6-0.4-1.2-0.7-2-1c-0.7-0.3-1.4-0.7-2-1.1c-1.1-0.8-2.2-1.7-3.4-2.7c-1.1-1-2.3-2.2-3.4-3.7c-0.5,1-0.9,2-1.2,2.9
			c-0.3,0.9-0.6,2-0.8,3.3c-0.1,0.5-0.2,1.1-0.4,1.8c-0.2,0.7-0.3,1.4-0.3,2.1c0,0.1-0.1,0.2-0.2,0.3l0.1,0.1
			c0.1,0.6,0.1,1.2,0.1,1.8c0,0.7,0,1.4-0.2,2.1c-0.1,0.5-0.5,0.8-1.1,0.8c-0.2,0-0.5,0-0.9-0.2c-0.5-0.2-0.9-0.4-1.4-0.5
			c-0.1-0.2-0.2-0.4-0.4-0.6c-0.2-0.2-0.3-0.4-0.5-0.6c-0.2-0.6-0.4-1.3-0.6-2.1c-0.2-0.8-0.3-1.4-0.4-1.7c0,0,0-0.3,0-0.7
			c0-0.4,0.1-0.9,0.2-1.3c0.1-0.5,0.1-1,0.2-1.5c0-0.5,0-1,0-1.4c0.2-1.8,0.6-3.9,1.3-6.4c0.7-2.5,1.4-5.1,2.1-7.7
			c0-0.2,0-0.4,0-0.6c1.2-3.9,2.4-7.9,3.6-11.9c1.2-4.1,2.3-8,3.4-11.9c0.3-0.8,0.5-1.8,0.9-3c0.3-1.2,0.7-2.4,1-3.7
			c0.3-1.3,0.6-2.6,0.9-3.9c0.3-1.4,0.5-2.6,0.6-3.9c0.1-0.3,0.2-0.6,0.4-0.9c0.2-0.3,0.3-0.6,0.5-1c0.4,0.7,0.9,1.1,1.6,1.4
			c0.6,0.3,1.3,0.7,2,1.3c0.4,0.9,0.7,1.9,1,3.1c0.3,1.2,0.5,2,0.5,2.2c0,0.2,0,0.5-0.1,1.1c-0.1,0.6-0.2,1.1-0.3,1.6
			c-0.3,1.7-0.7,3.4-1.1,5.2c-0.4,1.8-0.8,3.5-1.1,5.2c-0.1,0.1-0.2,0.2-0.3,0.4c-0.1,0.2-0.2,0.3-0.3,0.5c-0.1,0.2-0.1,0.3,0,0.5
			c0,0.2,0,0.3-0.1,0.5c-0.6,1.2-1.1,2.2-1.4,3.1c-0.3,0.9-0.6,1.8-0.8,2.6c-0.2,0.8-0.4,1.6-0.6,2.4c-0.2,0.8-0.5,1.6-1,2.3V35
			c0.2,0,0.2-0.1,0.1-0.2c-0.1-0.1,0-0.2,0.3-0.2c0.3,0,0.6-0.1,0.8-0.2c0.3-0.1,0.5-0.2,0.6-0.2c0.2-0.1,0.4-0.2,0.8-0.6
			c0.4-0.3,0.8-0.7,1.4-1c0.6-0.4,1.3-0.7,2.1-1.1c0.8-0.4,1.7-0.6,2.6-0.6c0.1,0,0.4,0.1,0.8,0.3c0.4,0.2,0.8,0.5,1.2,0.8
			c0.4,0.3,0.8,0.7,1.2,1.1c0.4,0.4,0.8,0.7,1.2,0.8c-0.2,0.4-0.3,0.9-0.2,1.5c0.1,0.6,0,1.1-0.1,1.6c-0.2,0.2-0.4,0.3-0.6,0.5
			c-0.2,0.2-0.4,0.4-0.5,0.8c-0.2,0.1-0.3,0.1-0.4,0.2c-0.1,0-0.2,0.1-0.4,0.1c-0.5,0.4-0.9,1-1.2,1.8l-0.4-0.4
			c-0.6,0.3-1.4,0.8-2.4,1.5c-1,0.7-1.9,1.3-2.7,1.9c-0.2,0.2-0.4,0.3-0.6,0.4c-0.3,0.1-0.5,0.2-0.6,0.3c-0.9,0.6-1.5,1.2-2,1.6
			c-0.5,0.5-0.9,1-1.3,1.5c-0.4,0.5-0.6,0.9-0.5,1.3c0,0.3,0.2,0.7,0.6,1.2c0.4,0.5,0.9,1,1.3,1.4c0.5,0.5,0.9,0.8,1.4,1.2
			c0.4,0.3,0.7,0.5,0.9,0.5c0.5,0.4,1.1,0.9,1.9,1.5c0.8,0.6,1.5,1.1,2.2,1.5c0.7,0.5,1.7,1.1,2.9,1.6c1.2,0.6,2.3,1.2,3.3,1.7
			c0.9,0.4,1.8,1,2.7,1.6C122.6,61.7,123.6,62.3,124.6,62.9z"/>
		<path class="st1" d="M142.3,43.1c0,2.8-1,5.6-2.9,8.4c-1.9,2.8-4.3,5.4-7.1,7.8c-0.2,0.1-0.3,0.3-0.3,0.5
			c-0.1,0.3-0.2,0.5-0.3,0.6c-1.7,1.1-3.3,1.6-4.8,1.6c-1.2,0-2.1-0.3-2.9-0.9c-0.7-0.6-1.5-1.2-2.3-1.8c-0.3-0.2-0.5-0.6-0.7-1.3
			c-0.2-0.7-0.6-1-1-1c-0.1-0.5-0.2-1-0.4-1.7c-0.2-0.7-0.2-1.1-0.2-1.3c0-0.8,0.2-1.8,0.5-3c0.3-1.1,0.7-2.3,1.1-3.3
			c0.4-1.1,0.8-2,1.2-2.8c0.4-0.8,0.7-1.4,0.9-1.7c0.1-0.1,0.2-0.3,0.2-0.6c0-0.3,0.1-0.5,0.2-0.7c0.3-0.5,0.6-0.9,0.9-1.4
			c0.4-0.5,0.6-0.9,0.8-1.4c0.2-0.1,0.3-0.2,0.3-0.2c0.1,0,0.2,0,0.3-0.1c0.2-0.1,0.2-0.2,0.2-0.3c0-0.2,0.1-0.4,0.2-0.6
			c0.2-0.4,0.5-0.7,0.9-0.9c0.4-0.2,0.7-0.5,1-0.9c0.2-0.2,0.2-0.4,0.2-0.7c0-0.3,0.1-0.5,0.2-0.8c-0.1,0-0.3,0-0.5-0.1
			c-0.2-0.1-0.4,0-0.5,0.3c0-0.2-0.1-0.4-0.2-0.5c-0.2,0.1-0.2,0.3-0.2,0.6c0-0.4-0.2-0.5-0.5-0.5l0.2-0.1c0.1,0,0.2-0.1,0.3-0.2
			c-0.1-0.7,0.1-1.3,0.6-1.8c0.5-0.5,1.1-1,1.8-1.3c0.7-0.4,1.4-0.7,2-0.9c0.7-0.2,1.1-0.4,1.3-0.6c0.2,0.4,0.5,0.6,0.8,0.5
			c0.3-0.1,0.7,0,1.1,0.2c0.2,0.2,0.6,0.5,1.1,1c0.5,0.5,0.9,0.9,1.3,1.3c0,0.1,0,0.2,0.2,0.3c0.1,0.3,0.2,0.4,0.3,0.5
			c0.1,0.1,0.2,0.1,0.4,0.1c0.2,0,0.3,0.1,0.4,0.2c1.2,1.6,2.1,3.2,2.9,4.8C142,39.9,142.3,41.5,142.3,43.1z M136,40.6
			c0-0.3-0.1-0.8-0.3-1.3c-0.2-0.6-0.4-1.1-0.6-1.5c-0.4,0.8-1,1.7-1.7,2.6c-0.7,0.9-1.3,1.6-1.6,2.2c-0.4,0.8-0.9,1.7-1.5,2.8
			c-0.6,1.1-1.1,2.1-1.6,3.1c-0.5,1-0.9,1.9-1.3,2.7c-0.3,0.8-0.5,1.2-0.5,1.3v0.7c0.5-0.4,1.1-0.8,1.8-1.4c0.7-0.6,1.1-0.9,1.3-0.9
			c0.3,0,0.3,0.1,0.1,0.2c-0.2,0.2-0.2,0.2,0.2,0.2c0.2,0,0.5-0.3,0.9-0.8c0.4-0.5,0.8-1.1,1.2-1.8c0.4-0.6,0.8-1.2,1.2-1.8
			c0.4-0.6,0.6-0.9,0.7-1c0.1-0.2,0.3-0.5,0.5-1.1c0.2-0.6,0.4-1.1,0.6-1.8c0.2-0.6,0.4-1.2,0.5-1.6C135.9,41,136,40.7,136,40.6z
			 M134.2,37.2V36h-0.4v1.2H134.2z"/>
		<path class="st1" d="M191.5,54.4c0.2,0.4,0.2,0.7,0,1.1c-0.2,0.4-0.3,0.7-0.3,0.9c-0.2,0.4,0,0.6,0.4,0.8
			c-0.1,0.2-0.2,0.4-0.4,0.5c-0.2,0.1-0.3,0.3-0.5,0.4c0,0.3,0,0.5-0.2,0.7c-0.6,0.3-1.1,0.5-1.7,0.8c-0.6,0.3-1,0.5-1.3,0.5
			c-0.3,0-0.7-0.1-1.3-0.3c-0.6-0.2-1.1-0.3-1.3-0.3c-0.2,0-0.2,0.1-0.1,0.2c0.2,0.1,0.1,0.1-0.2,0.2c-0.2,0-0.7-0.3-1.5-0.9
			c-0.8-0.6-1.5-1.1-2-1.6c-0.8-0.9-1.4-2-1.6-3.4c-0.3-1.4-0.5-2.8-0.8-4.2c0-0.4-0.1-0.7-0.1-1.1c0-0.4-0.1-0.9-0.4-1.4
			c-0.3,0.4-0.6,0.7-0.7,1.1c-0.2,0.4-0.4,0.7-0.7,1.1c-0.4,0.6-1.2,1.5-2.3,2.8c-1.1,1.2-2,2.4-2.8,3.5c-0.5,0.6-1,1.3-1.6,2
			c-0.5,0.7-1.2,1.2-1.9,1.6c-0.1,0.2-0.1,0.3-0.1,0.3c0.1,0.1,0,0.1-0.2,0.2c-0.4,0.3-0.9,0.5-1.5,0.8c-0.6,0.3-1,0.4-1.2,0.4
			c-0.4,0.1-0.9,0-1.5-0.3c-0.7-0.2-1.3-0.6-2-1c-0.6-0.4-1.2-0.9-1.6-1.3c-0.4-0.4-0.7-0.8-0.7-1.2c-0.1-0.9-0.1-1.9,0.1-3
			c0.2-1.1,0.4-2.2,0.6-3.3c0.3-1.1,0.5-2.1,0.7-3c0.2-0.9,0.3-1.7,0.4-2.3c0.1-0.2,0.1-0.3,0-0.4c-0.1,0-0.2-0.1-0.2-0.2l0.2-0.3
			c-0.1-0.2-0.1-0.3-0.2-0.4c-0.1-0.1-0.1-0.3-0.1-0.5c-1.2,1.3-2.5,2.8-3.8,4.6c-1.3,1.8-2.6,3.4-3.8,5c-0.1,0.1-0.1,0.3-0.2,0.5
			c-0.1,0.2-0.1,0.4-0.2,0.6c-0.5,0.7-1.1,1.3-1.7,2c0,0.2,0,0.4,0,0.6c-0.5,0.5-1,1-1.4,1.8c-0.4,0.7-0.9,1.3-1.3,1.8
			c-0.2,0.2-0.5,0.4-1,0.7c-0.5,0.3-0.9,0.5-1.2,0.5c-0.2,0.1-0.6-0.1-1.1-0.5c-0.5-0.4-0.9-0.7-1.2-1c-0.4-0.3-0.7-0.7-0.8-1.2
			c-0.1-0.6-0.2-1.1-0.2-1.7c-0.2-1.2,0-2.8,0.5-4.9c0.5-2,1-4,1.6-5.9c0.6-1.9,1.2-3.7,1.8-5.2c0.6-1.6,0.9-2.6,1-3.3
			c0.1-0.4,0.3-1,0.5-1.6c0.2-0.7,0.4-1.3,0.5-1.9c0,0,0.1-0.1,0.2-0.2c0.1,0,0.1-0.2,0.2-0.3c0-1.1,0.1-2.1,0.3-2.9
			c0.2-0.8,0.7-2,1.3-3.5c0.3,0,0.5-0.1,0.9-0.3c0.3-0.1,0.6-0.2,0.9-0.2c0.5-0.1,1,0.1,1.4,0.4c0.1,0.2,0.1,0.3,0.2,0.4
			c0.6,0.1,1,0.5,1.4,1.3c0.4,0.7,0.5,1.2,0.5,1.4c0.1,0.3,0,1.1-0.3,2.5c-0.2,1.4-0.5,2.5-0.8,3.3c0,0.4-0.2,0.8-0.4,1.4
			c-0.2,0.6-0.5,1.2-0.7,1.8c-0.2,0.6-0.4,1.2-0.6,1.7c-0.2,0.5-0.2,0.9-0.2,1.3c0,0,0.1-0.1,0.2-0.2c0.1-0.2,0.3-0.3,0.6-0.3
			c0.1,0,0.4-0.4,1-1.1c0.6-0.7,1.2-1.6,2-2.5c0.7-1,1.5-2,2.3-3.1c0.8-1.1,1.5-2.1,2.1-2.9c0.3-0.1,0.7-0.2,1.2-0.2
			c0.5,0,1.1,0.1,1.7,0.2c0.4,0.1,1,0.3,1.9,0.7c0.8,0.4,1.5,0.9,2,1.4c0.2,0.4,0.4,0.9,0.7,1.5c0.3,0.7,0.4,1.2,0.5,1.5
			c0,0.2,0,0.5-0.1,1.1c-0.1,0.6-0.2,1.3-0.3,2.2c-0.1,0.8-0.2,1.7-0.3,2.6c-0.1,0.9-0.2,1.7-0.2,2.4c-0.4,0.1-0.6,0.4-0.7,1
			c-0.1,0.5-0.1,1-0.2,1.5v0.1c0,0,0,0.1,0.1,0.2c0.3-0.3,0.4-0.5,0.5-0.7c0.1-0.2,0.4-0.3,0.8-0.3l10-12.1c0.1,0.1,0.3,0.1,0.7,0
			c0.3,0,0.7,0,1,0.1c0.2,0.1,0.4,0.2,0.7,0.5c0.3,0.3,0.5,0.4,0.6,0.5c0.1,0,0.2,0.1,0.4,0c0.2,0,0.4,0,0.6,0.2
			c0.2,0.1,0.4,0.2,0.6,0.4c0.2,0.2,0.4,0.4,0.7,0.7c0.3,0.3,0.4,0.6,0.5,1c0,0.4,0.3,0.7,0.6,0.9c-0.1,0-0.1,0.1,0,0.3
			c0.1,0.2,0.1,0.3,0.2,0.5c0,0.1,0,0.4-0.1,1c-0.1,0.6-0.2,1.2-0.2,1.9c-0.1,0.7-0.2,1.5-0.3,2.3c-0.1,0.8-0.2,1.4-0.2,2
			c-0.1,0.6-0.1,1.4-0.1,2.5c0,1.1,0,1.8,0.1,2.1c0.1,1,0.3,1.8,0.6,2.2c0.3,0.5,1.2,0.6,2.5,0.5c0.2,0,0.7-0.1,1.5-0.4
			C190.3,54.9,191,54.6,191.5,54.4z M176.3,49.5h-0.2l-0.5,0.7l0.4,0.2L176.3,49.5z"/>
		<path class="st1" d="M249.6,3.2c-0.1,0-0.2,0.2-0.3,0.3c0.4,0.8,0.5,1.8,0.3,3c-0.2,1.2-0.4,2.1-0.5,2.6c-0.3,1.4-0.7,3-1.2,4.9
			c-0.5,1.9-1,3.8-1.5,5.9c-0.5,2-1,4.1-1.6,6.2c-0.6,2.1-1.1,4.1-1.6,5.9c-0.2,1-0.5,2-1,3.2c-0.5,1.2-0.9,2.4-1.3,3.6l0.3,0.3
			c0.5-0.5,0.9-0.8,1.5-1c0.5-0.2,1.1-0.3,1.7-0.4c1-0.1,2,0,3,0.3c1,0.3,2,0.7,2.8,1.3c0.8,0.6,1.6,1.3,2.1,2.2
			c0.6,0.9,0.9,1.8,1,2.8c0.1,0.2,0,0.8-0.2,1.8c-0.2,1-0.4,1.9-0.6,2.7c-0.2,0.6-0.5,1.3-0.9,2.3c-0.4,1-0.7,1.9-1,2.6
			c-0.2,0.3-0.5,0.9-1,1.7c-0.5,0.8-1,1.7-1.6,2.6c-0.6,0.9-1.1,1.7-1.6,2.4c-0.5,0.7-0.9,1.1-1.1,1.1c-0.3,0-0.3-0.1-0.3-0.2
			c0.1-0.1,0-0.2-0.3-0.2c-0.2,0-0.5,0.3-0.9,0.7c-0.4,0.4-0.8,0.7-1.1,0.8l0.2-0.1v-0.2c-0.3-0.1-0.5-0.1-0.8-0.3
			c-0.3-0.1-0.5-0.2-0.8-0.1c-0.3,0.1-0.4,0.1-0.3,0.2c0.1,0,0,0.1-0.2,0.2c-0.3,0-0.5-0.1-0.7-0.3c-0.2-0.2-0.3-0.3-0.5-0.5
			c-0.1-0.1-0.2-0.2-0.5-0.6c-0.3-0.3-0.6-0.7-0.9-1.1c-0.3-0.4-0.5-0.9-0.8-1.3c-0.2-0.5-0.3-0.8-0.3-1c0-0.3,0.1-0.8,0.3-1.5
			c0.3-0.7,0.5-1.1,0.6-1.2c0.4,0.2,0.6,0.4,0.6,0.7c0.1,0.3,0.2,0.5,0.2,0.7c0.1,0.2,0.2,0.3,0.3,0.4c0.1,0.1,0.3,0.1,0.6,0.1
			c0.3-0.1,0.6-0.3,1-0.8c0.4-0.5,0.8-1,1.2-1.7c0.4-0.6,0.8-1.3,1.1-2c0.4-0.7,0.6-1.2,0.8-1.6c0.5-1,1-2.2,1.4-3.6
			c0.4-1.4,0.8-2.6,1.2-3.5l-0.2-1c-0.3,0-0.5,0.2-0.6,0.6c-0.2,0.4-0.4,0.7-0.8,0.9c-0.7,0.4-1.3,0.8-1.6,1.3
			c-0.4,0.4-0.6,0.9-0.8,1.4c-0.2,0.1-0.3,0.1-0.3,0c-0.1,0-0.2-0.1-0.3-0.1c0.1,0.3,0,0.7-0.3,1.2c-0.3,0.5-0.6,1-1,1.6
			c-0.4,0.6-0.8,1.1-1.2,1.7c-0.4,0.5-0.7,1-0.8,1.4c0.3,0.3,0.5,0.3,0.7-0.1c-0.3,0.3-0.7,0.6-1,1c-0.4,0.4-0.7,0.7-1,0.7
			c-0.3,0-0.8,0-1.3,0c-0.6-0.1-1-0.1-1.3,0c-0.3,0-0.6-0.3-1-0.8c-0.4-0.5-0.8-1.1-1.2-1.8c-0.4-0.7-0.8-1.5-1.3-2.6
			c0-0.4,0-1,0.2-2c0.2-1,0.4-2,0.7-3c0.3-1,0.5-2,0.8-2.8c0.3-0.8,0.4-1.3,0.4-1.3c0.8-2.6,1.6-5.3,2.5-8.3c0.9-3,1.7-6,2.6-9
			c0.9-3,1.8-6,2.6-8.9c0.8-2.9,1.6-5.4,2.3-7.7c0.3-0.8,0.5-1.7,0.8-2.7c0.3-1,0.6-1.9,1.1-2.8c0.3-0.2,0.7-0.2,1-0.3
			c0.4,0,0.7,0,1,0c0.2-0.1,0.4,0.1,0.7,0.3c0.3,0.3,0.6,0.6,0.9,0.9c0.3,0.3,0.7,0.8,1.2,1.4C249.8,3,249.7,3.2,249.6,3.2z"/>
		<path class="st1" d="M272.3,48.1c-0.3,0.2-0.4,0.5-0.4,1c0,0.4,0,0.9,0,1.4c0,0.5,0,1-0.2,1.4c-0.1,0.5-0.4,0.9-0.8,1.2
			c0.1,0.1,0.2,0.1,0.4,0.1c0.2,0,0.3,0.1,0.4,0.2c-0.1,0.2-0.2,0.4-0.4,0.6c-0.2,0.2-0.4,0.4-0.5,0.5c-0.2,0.3-0.3,0.7-0.2,1.3
			c-0.6,0.4-1.3,0.9-2.1,1.6c-0.8,0.7-1.4,1.4-1.9,1.9c0,0.1,0,0.3,0,0.5s-0.2,0.4-0.5,0.6c-0.5,0.3-1,0.5-1.7,0.7
			c-0.7,0.2-1.1,0.3-1.4,0.3c-1.3,0.1-2.5-0.2-3.4-0.8c-0.9-0.7-1.8-1.5-2.5-2.5c-0.7-1-1.2-2-1.6-3.2c-0.4-1.1-0.6-2.1-0.6-3
			c-0.1-0.5,0-1.2,0.1-2.3c0.1-1.1,0.3-2,0.5-2.8c0.2-0.7,0.4-1.4,0.5-2c0.2-0.6,0.3-1,0.3-1.2c0.7-3.3,1.6-6,2.5-8
			c0-0.2,0-0.6,0.1-1.1c0.2-0.1,0.3-0.3,0.4-0.6c0.1-0.3,0.3-0.6,0.5-0.8c0.3,0,0.6-0.1,0.9-0.2c0.3-0.1,0.6-0.2,0.9-0.2
			c1-0.1,2,0.4,3.1,1.2c1.1,0.9,1.7,1.8,1.8,2.8c0,0.2-0.1,0.4-0.2,0.6c-0.1,0.2-0.2,0.5-0.2,0.8c-0.3,0.9-0.5,2.3-0.8,4.1
			c-0.3,1.8-0.6,3.2-1.2,4c-0.2,0.4-0.3,0.8-0.4,1.4c-0.1,0.6-0.2,1-0.3,1.4c-0.5,1.6-0.8,2.7-1.1,3.5c-0.3,0.7-0.3,1.6,0,2.5
			c1.8-0.8,3.5-1.9,5.3-3.1C269.5,50.6,271,49.3,272.3,48.1z M269.5,20.6c-0.3,0.5-0.4,1-0.3,1.5c0.1,0.6,0.2,1.1,0.2,1.6
			c0,0.5,0,0.9-0.2,1.2c-0.2,0.3-0.8,0.5-1.7,0.6c-0.6,0-1.1-0.1-1.7-0.3c-0.5-0.3-1-0.5-1.4-0.7c0-0.1-0.1-0.2-0.1-0.3
			c0-0.1-0.1-0.2-0.2-0.3c-0.6-0.3-1-0.9-1.4-1.7c-0.4-0.8-0.6-1.5-0.8-2.2c-0.2-0.3-0.2-0.7-0.2-1.3c0-0.5-0.1-1-0.3-1.3
			c0.9,0.1,1.6,0.1,2.1,0c0.5-0.1,1-0.1,1.4-0.2c0.4-0.1,0.8-0.2,1.1-0.3c0.3-0.1,0.7-0.2,1.2-0.3c0.3,0.4,0.5,0.7,0.8,0.9
			c0.3,0.2,0.5,0.5,0.6,0.7c0.2,0.2,0.3,0.5,0.2,1C268.8,19.8,269,20.2,269.5,20.6z"/>
		<path class="st1" d="M279,40.1c0,0.3-0.1,0.7-0.3,1.2c-0.2,0.5-0.3,0.9-0.3,1.3c-0.2,0.8-0.2,1.5-0.2,2c0,0.6,0,1.1-0.2,1.6
			c-0.1,0.4-0.2,1.2-0.2,2.2c0,1.1,0,2-0.2,2.8c-0.4,2.2-0.8,4.5-1.4,6.8c-0.6,2.3-1,4.6-1.3,7.1c-0.1,0.2-0.1,0.4-0.1,0.7
			c0.1,0.3,0,0.6-0.2,0.8c-0.6,1.2-0.9,2.5-1,4.1c-0.1,1.5-0.7,2.9-1.8,4.2c0.1,0.2,0.1,0.5-0.1,0.8c-0.2,0.3-0.3,0.6-0.4,0.9
			c-0.1,0.3-0.1,0.6,0,1c0.1,0.4,0.1,0.8,0.1,1.1c-0.4,1.6-1.1,3.3-2,5.3c-0.5,1-1,2-1.5,2.9c-0.5,1-1,2-1.6,3
			c-0.2,0.2-0.4,0.5-0.7,0.8c-0.3,0.3-0.7,0.7-1,1.1c-0.4,0.4-0.7,0.8-1,1.2c-0.3,0.4-0.4,0.7-0.3,1c-0.2,0.4-0.7,1-1.6,1.6
			c-0.9,0.7-1.9,1.4-2.9,2c-1.1,0.7-2.2,1.2-3.3,1.8c-1.1,0.5-2,0.8-2.7,0.8c-0.3,0-0.8-0.1-1.6-0.3c-0.7-0.2-1.3-0.4-1.7-0.6
			c-1.4-0.4-2.6-1.1-3.6-2.1c-1-1-1.9-2.1-2.6-3.3c-0.7-1.2-1.2-2.5-1.6-3.8c-0.4-1.3-0.7-2.5-0.8-3.6c0.1-1.1,0.1-2,0.1-2.6
			c0-0.6,0-1.1,0-1.4c0-0.3,0-0.5,0-0.6c0-0.1,0-0.2,0-0.3c0.2-0.4,0.3-0.9,0.4-1.4c0.1-0.5,0.2-1,0.3-1.5c0,0.4,0,0.7-0.1,0.9
			c-0.1,0.3,0,0.5,0.1,0.8c0.3-0.7,0.5-1.5,0.7-2.4c0.1-0.9,0.3-1.7,0.6-2.5c0.4-1.1,0.8-2.1,1.3-3.2c0.5-1,1-2.1,1.5-3
			c0,0.1,0,0.2,0.1,0.4c0.1,0.2,0.1,0.2,0.2,0.2c0.1,0,0.1,0.2,0,0.5l0.1,6.3c0.2,0,0.3,0,0.4,0.2c0.1,0.1,0.2,0.3,0.2,0.5
			c0,0.2-0.1,0.5-0.2,0.8c-0.1,0.3-0.2,0.7-0.2,1c0,0.8-0.1,1.7-0.3,2.9c-0.2,1.1-0.3,1.9-0.3,2.1c0,0.2,0.1,0.6,0.3,1.2
			c0.2,0.6,0.4,1.1,0.6,1.5c0,0.1,0,0.5-0.1,1.1c0,0.6,0,1.3,0.1,2.1c0.1,0.8,0.3,1.5,0.6,2.1c0.3,0.6,0.7,0.9,1.3,0.9
			c1.2,0,2.6-0.4,4.1-1.2c1.5-0.8,3-1.8,4.4-3c1.4-1.2,2.7-2.4,3.8-3.7c1.2-1.3,2-2.3,2.5-3.1c0.2-0.2,0.2-0.5,0.3-0.8
			c0-0.3,0.1-0.6,0.3-0.8c1.2-1.9,1.9-3.4,2.3-4.6c0.4-1.2,0.7-2.5,1-3.8c0.4-1.4,0.8-3.1,1.4-5.1c0.6-2,0.9-3.9,1-5.4
			c0.1-0.2,0.3-0.7,0.5-1.5c0.2-0.8,0.4-1.5,0.5-2.1c0.3-1.7,0.5-3.4,0.7-5.1c0.2-1.7,0.4-3.4,0.7-5.2c0.3-1.6,0.6-3.2,0.8-4.9
			c0.2-1.7,0.5-3.3,0.9-4.9c0.2-0.8,0.2-1.6,0.3-2.4c0-0.8,0-1.6-0.2-2.4c0.2,0,0.3,0,0.3-0.1c0.1-0.1,0.2-0.1,0.5-0.1
			c0.2,0,0.6,0.1,1.3,0.4c0.6,0.3,1.1,0.6,1.4,1c0.6,0.6,1,1.4,1.2,2.4c0.2,0.6,0.3,1.3,0.4,2.1C278.9,39.4,279,39.9,279,40.1z
			 M242.4,77l-0.5,1.5l-0.2-0.2l0.4-1.3H242.4z M284.2,22.3c0,0.2-0.1,0.5-0.2,1c-0.1,0.4-0.2,0.9-0.4,1.3c-0.5,0.3-1.1,0.5-1.6,0.7
			c-0.6,0.2-1,0.3-1.3,0.3c-0.2,0-0.5-0.2-0.9-0.5c-0.4-0.3-0.8-0.6-1.1-1c-0.4-0.4-0.7-0.8-1.1-1.1c-0.4-0.4-0.6-0.6-0.8-0.8
			c-0.2-1-0.3-1.9-0.3-2.8c0-0.9-0.2-1.7-0.6-2.5c0.2-0.2,0.3-0.5,0.5-0.7c0.2-0.3,0.4-0.4,0.7-0.4c0.2,0,0.6,0.2,1.1,0.7
			c0.5,0.5,1,0.9,1.5,1.3c0.2,0.2,0.5,0.4,0.9,0.6c0.4,0.2,0.8,0.5,1.1,0.8c0.4,0.3,0.9,0.8,1.5,1.5C283.9,21.5,284.2,22,284.2,22.3
			z"/>
	</g>
	<rect x="253" y="69.9" class="st0" width="23.3" height="16.9"/>
</g>
</svg>
